<?xml version="1.0" standalone="no"?><!DOCTYPE svg PUBLIC "-//W3C//DTD SVG 1.1//EN" "http://www.w3.org/Graphics/SVG/1.1/DTD/svg11.dtd"><svg t="1750056574566" class="icon" viewBox="0 0 1024 1024" version="1.1" xmlns="http://www.w3.org/2000/svg" p-id="1481" xmlns:xlink="http://www.w3.org/1999/xlink" width="200" height="200"><path d="M512 32a480 480 0 1 1 0 960 480 480 0 0 1 0-960z m0 83.2a396.8 396.8 0 1 0 0 793.6A396.8 396.8 0 0 0 512 115.2z" fill="#AEAFBC" p-id="1482"></path><path d="M589.952 384c27.648 0 50.048 23.168 50.048 51.712v152.576c0 28.544-22.4 51.712-50.048 51.712H434.048A50.88 50.88 0 0 1 384 588.288V435.712C384 407.168 406.4 384 434.048 384h155.904z" fill="#AEAFBC" p-id="1483"></path></svg>